<svg width="680" height="260" viewBox="0 0 680 260" xmlns="http://www.w3.org/2000/svg" style="background:#0E1B2C;border-radius:12px;">

<g transform="translate(50,30)">
  <path d="M100 10 L190 48 Q180 155 100 200 Q20 155 10 48 Z" fill="#111E30" stroke="#22D99D" stroke-width="4"/>

  <line x1="35" y1="78" x2="165" y2="78" stroke="#22D99D" stroke-width="1" opacity="0.2"/>
  <line x1="20" y1="103" x2="180" y2="103" stroke="#22D99D" stroke-width="1" opacity="0.2"/>
  <line x1="12" y1="128" x2="188" y2="128" stroke="#22D99D" stroke-width="1" opacity="0.2"/>
  <line x1="16" y1="153" x2="184" y2="153" stroke="#22D99D" stroke-width="1" opacity="0.2"/>
  <line x1="65" y1="18" x2="30" y2="150" stroke="#22D99D" stroke-width="1" opacity="0.15"/>
  <line x1="100" y1="10" x2="20" y2="168" stroke="#22D99D" stroke-width="1" opacity="0.15"/>
  <line x1="135" y1="18" x2="80" y2="198" stroke="#22D99D" stroke-width="1" opacity="0.15"/>
  <line x1="165" y1="45" x2="145" y2="195" stroke="#22D99D" stroke-width="1" opacity="0.15"/>

  <text x="100" y="140" text-anchor="middle" font-family="monospace" font-size="48" font-weight="700" fill="#22D99D">NLS</text>

  <path d="M100 10 L190 48 Q180 155 100 200 Q20 155 10 48 Z" fill="none" stroke="#22D99D" stroke-width="4"/>
</g>

<g transform="translate(270, 70)">
  <text font-family="monospace" font-size="42" font-weight="700" fill="#22D99D" letter-spacing="2">NextlayerSec</text>
  <line x1="0" y1="58" x2="390" y2="58" stroke="#22D99D" stroke-width="0.8" opacity="0.4"/>
  <text y="80" font-family="monospace" font-size="12" fill="#22D99D" letter-spacing="3" opacity="0.7">SECURITY  ·  ADVISORY  ·  COMPLIANCE</text>
  <text y="108" font-family="monospace" font-size="11" fill="#22D99D" letter-spacing="3" opacity="0.4">NEXTLAYERSEC LLC</text>
</g>

</svg>
