<svg width="680" height="260" viewBox="0 0 680 260" xmlns="http://www.w3.org/2000/svg">

<g transform="translate(140,20)">
  <path d="M100 10 L190 48 Q180 155 100 200 Q20 155 10 48 Z" fill="#0E1B2C" stroke="#22D99D" stroke-width="3"/>

  <line x1="35" y1="78" x2="165" y2="78" stroke="#22D99D" stroke-width="0.8" opacity="0.15"/>
  <line x1="20" y1="103" x2="180" y2="103" stroke="#22D99D" stroke-width="0.8" opacity="0.15"/>
  <line x1="12" y1="128" x2="188" y2="128" stroke="#22D99D" stroke-width="0.8" opacity="0.15"/>
  <line x1="16" y1="153" x2="184" y2="153" stroke="#22D99D" stroke-width="0.8" opacity="0.15"/>
  <line x1="30" y1="175" x2="170" y2="175" stroke="#22D99D" stroke-width="0.8" opacity="0.15"/>
  <line x1="65" y1="18" x2="30" y2="150" stroke="#22D99D" stroke-width="0.8" opacity="0.1"/>
  <line x1="90" y1="12" x2="18" y2="168" stroke="#22D99D" stroke-width="0.8" opacity="0.1"/>
  <line x1="115" y1="12" x2="65" y2="198" stroke="#22D99D" stroke-width="0.8" opacity="0.1"/>
  <line x1="140" y1="20" x2="110" y2="198" stroke="#22D99D" stroke-width="0.8" opacity="0.1"/>
  <line x1="165" y1="45" x2="148" y2="190" stroke="#22D99D" stroke-width="0.8" opacity="0.1"/>

  <text x="100" y="138" text-anchor="middle" font-family="monospace" font-size="44" font-weight="700" fill="#22D99D" letter-spacing="-1">NLS</text>

  <path d="M100 10 L190 48 Q180 155 100 200 Q20 155 10 48 Z" fill="none" stroke="#22D99D" stroke-width="2.5"/>
</g>

<g transform="translate(365, 80)">
  <text font-family="monospace" font-size="38" font-weight="700" fill="#22D99D" letter-spacing="3">NextlayerSec</text>
  <text y="52" font-family="monospace" font-size="12" fill="#22D99D" letter-spacing="5" opacity="0.75">SECURITY  ·  ADVISORY  ·  COMPLIANCE</text>
  <line x1="0" y1="66" x2="280" y2="66" stroke="#22D99D" stroke-width="0.5" opacity="0.3"/>
  <text y="84" font-family="monospace" font-size="11" fill="#22D99D" letter-spacing="3" opacity="0.5">NEXTLAYERSEC LLC</text>
</g>

</svg>
