<svg width="680" height="240" viewBox="0 0 680 240" xmlns="http://www.w3.org/2000/svg">

<g transform="translate(40,20)">
  <path d="M80 10 L156 42 Q148 128 80 168 Q12 128 4 42 Z" fill="#0E1B2C" stroke="#22D99D" stroke-width="3"/>

  <line x1="30" y1="72" x2="130" y2="72" stroke="#22D99D" stroke-width="0.8" opacity="0.15"/>
  <line x1="18" y1="92" x2="142" y2="92" stroke="#22D99D" stroke-width="0.8" opacity="0.15"/>
  <line x1="10" y1="112" x2="150" y2="112" stroke="#22D99D" stroke-width="0.8" opacity="0.15"/>
  <line x1="10" y1="132" x2="150" y2="132" stroke="#22D99D" stroke-width="0.8" opacity="0.15"/>
  <line x1="18" y1="152" x2="142" y2="152" stroke="#22D99D" stroke-width="0.8" opacity="0.15"/>
  <line x1="55" y1="30" x2="30" y2="130" stroke="#22D99D" stroke-width="0.8" opacity="0.1"/>
  <line x1="80" y1="18" x2="18" y2="148" stroke="#22D99D" stroke-width="0.8" opacity="0.1"/>
  <line x1="105" y1="18" x2="55" y2="168" stroke="#22D99D" stroke-width="0.8" opacity="0.1"/>
  <line x1="130" y1="28" x2="95" y2="168" stroke="#22D99D" stroke-width="0.8" opacity="0.1"/>
  <line x1="150" y1="50" x2="125" y2="160" stroke="#22D99D" stroke-width="0.8" opacity="0.1"/>

  <text x="80" y="118" text-anchor="middle" font-family="monospace" font-size="38" font-weight="700" fill="#22D99D" letter-spacing="-1">NLS</text>

  <path d="M80 10 L156 42 Q148 128 80 168 Q12 128 4 42 Z" fill="none" stroke="#22D99D" stroke-width="2.5"/>
</g>

<g transform="translate(220, 75)">
  <text font-family="monospace" font-size="36" font-weight="700" fill="#22D99D" letter-spacing="1">NextlayerSec</text>
  <text y="48" font-family="monospace" font-size="13" fill="#22D99D" letter-spacing="4" opacity="0.85">SECURITY  ·  ADVISORY  ·  COMPLIANCE</text>
</g>

</svg>
